<svg width="44" height="46" viewBox="0 0 44 46" fill="none" xmlns="http://www.w3.org/2000/svg">
<path d="M4.85449 7.58363L0.623513 4.19886L3.87714 0.131836L8.69453 3.98575C9.55937 4.67763 10.0628 5.72511 10.0628 6.83267V10.4997H21.0003V22.9997C21.0003 27.6638 17.9349 31.6122 13.7087 32.9395V40.083L18.6816 44.0613C19.4503 44.6763 19.0153 45.9163 18.0307 45.9163H3.13655C2.15189 45.9163 1.71693 44.6763 2.48583 44.0613L7.45866 40.083V32.9395C3.23251 31.6122 0.166992 27.6638 0.166992 22.9997V10.4997H4.85449V7.58363Z" fill="black"/>
<path d="M18.1581 38.8615L19.2687 34.7163C21.4054 33.1305 23.0937 30.9738 24.1073 28.4705L35.2406 31.4538L36.3192 27.429L25.0994 24.4228C25.1446 23.9549 25.1677 23.4807 25.1677 23.0009V12.701L31.2046 14.3186C30.7583 15.9854 31.7477 17.6985 33.4146 18.1451C35.0812 18.5917 36.7946 17.6028 37.2417 15.9362L43.279 17.5539L36.2692 43.7143L30.2323 42.0968C30.6787 40.4299 29.6896 38.7163 28.0225 38.2697C26.3554 37.823 24.6421 38.8122 24.1952 40.4793L18.1581 38.8615Z" fill="black"/>
</svg>
