<svg width="37" height="45" viewBox="0 0 37 45" fill="none" xmlns="http://www.w3.org/2000/svg">
<path fill-rule="evenodd" clip-rule="evenodd" d="M0 24.8971C0 30.745 4.36908 35.565 8.41922 38.7616C10.4929 40.3983 12.5968 41.7001 14.2593 42.5963C15.0905 43.0444 15.8251 43.3986 16.4038 43.6457C16.6913 43.7685 16.9572 43.8722 17.1872 43.9484C17.3413 43.9994 17.6992 44.1174 18.0649 44.1174C18.4167 44.1174 18.7681 44.0082 18.9277 43.9581C19.1616 43.8846 19.4349 43.7837 19.7341 43.6622C20.3357 43.4177 21.1039 43.0641 21.9765 42.6089C23.7212 41.6988 25.9353 40.3554 28.1195 38.6092C32.3911 35.1941 36.8467 29.9896 36.9305 23.2624C36.931 23.2239 36.9313 23.1854 36.9315 23.1468C36.9317 23.121 36.9317 23.0952 36.9317 23.0694V9.67768C36.9317 9.07681 36.5876 8.52903 36.0463 8.2682L19.2675 0.183058C18.7609 -0.0610194 18.1708 -0.0610192 17.6643 0.183058L0.8855 8.26815C0.344142 8.52901 0 9.07685 0 9.67778V24.8971ZM33.2386 11.2339V14.9551L6.47451 31.7345C5.796 30.8792 5.21478 29.994 4.76178 29.0871L33.2386 11.2339Z" fill="black"/>
</svg>
