<svg width="61" height="61" viewBox="0 0 61 61" fill="none" xmlns="http://www.w3.org/2000/svg">
<rect width="61" height="61" fill="#FFFDFC" style="fill:#FFFDFC;fill:color(display-p3 1.0000 0.9922 0.9882);fill-opacity:1;"/>
<path d="M29.1125 47.4722H22.7998C14.2226 47.4722 7.24119 40.5494 7.00073 31.9173H22.7616C24.9846 31.9173 26.0961 31.9173 26.9452 32.3557C27.6921 32.7413 28.2993 33.3566 28.6798 34.1134C29.1125 34.9737 29.1125 36.1 29.1125 38.3525V47.4722Z" fill="#001391" style="fill:#001391;fill:color(display-p3 0.0000 0.0745 0.5686);fill-opacity:1;"/>
<path d="M7 29.1068C7.22805 20.4635 14.2145 13.5277 22.7997 13.5277H29.1124V22.6716C29.1124 24.9242 29.1124 26.0504 28.6798 26.9108C28.2992 27.6676 27.692 28.2828 26.9451 28.6684C26.096 29.1068 24.9845 29.1068 22.7615 29.1068H7Z" fill="#001391" style="fill:#001391;fill:color(display-p3 0.0000 0.0745 0.5686);fill-opacity:1;"/>
<path d="M31.8876 47.4722H38.2002C46.7774 47.4722 53.7589 40.5494 53.9993 31.9173H38.2385C36.0155 31.9173 34.904 31.9173 34.0549 32.3557C33.308 32.7413 32.7008 33.3566 32.3202 34.1134C31.8876 34.9737 31.8876 36.1 31.8876 38.3525V47.4722Z" fill="#001391" style="fill:#001391;fill:color(display-p3 0.0000 0.0745 0.5686);fill-opacity:1;"/>
<path d="M54.0001 29.1068C53.772 20.4635 46.7855 13.5277 38.2003 13.5277H31.8877V22.6716C31.8877 24.9242 31.8877 26.0504 32.3203 26.9108C32.7009 27.6676 33.3081 28.2828 34.055 28.6684C34.9041 29.1068 36.0156 29.1068 38.2386 29.1068H54.0001Z" fill="#001391" style="fill:#001391;fill:color(display-p3 0.0000 0.0745 0.5686);fill-opacity:1;"/>
</svg>
