<svg width="20" height="21" viewBox="0 0 20 21" fill="none" xmlns="http://www.w3.org/2000/svg">
<path d="M10.0002 6.63501C6.08867 6.63501 3.57152 7.27572 2.18371 7.78832C1.4207 8.07014 0.984375 8.82862 0.984375 9.64202V16.7779C0.984375 17.4003 1.48894 17.9049 2.11136 17.9049H5.49231M17.8891 9.45247C18.1292 9.63665 18.3738 9.83511 18.6231 10.0488C18.8653 10.2564 18.9993 10.5619 18.9993 10.8808V14.9555C18.9993 15.3818 18.7588 15.7716 18.3778 15.9628L14.7468 17.7851C14.5899 17.8639 14.4168 17.9049 14.2412 17.9049H10.0002" stroke="#575349" stroke-linecap="round"/>
<path d="M14.5079 8.81845V1M14.5079 1L11.127 4.38095M14.5079 1L17.8889 4.38095" stroke="#575349" stroke-linecap="round"/>
<path d="M10.0001 17.9048C10.0001 19.1497 8.99099 20.1588 7.74616 20.1588C6.50132 20.1588 5.49219 19.1497 5.49219 17.9048C5.49219 16.66 6.50132 15.6509 7.74616 15.6509C8.99099 15.6509 10.0001 16.66 10.0001 17.9048Z" stroke="#575349"/>
<path d="M4.36523 11.7063H8.87317" stroke="#575349" stroke-linecap="round"/>
</svg>
