<svg width="493" height="113" viewBox="0 0 493 113" fill="none" xmlns="http://www.w3.org/2000/svg">
<path d="M0.768982 106V47.281H11.203V55.273C15.273 48.687 21.008 45.394 28.408 45.394C36.844 45.394 42.727 49.242 46.057 56.938C50.719 49.242 57.12 45.394 65.26 45.394C71.402 45.394 76.36 47.392 80.134 51.388C83.908 55.31 85.795 61.119 85.795 68.815V106H75.361V70.924C75.361 65.152 74.399 60.823 72.475 57.937C70.551 55.051 67.406 53.608 63.04 53.608C58.526 53.608 54.974 55.31 52.384 58.714C49.794 62.044 48.499 66.151 48.499 71.035V106H38.065V71.257C38.065 59.491 34.032 53.608 25.966 53.608C21.526 53.608 17.937 55.347 15.199 58.825C12.535 62.303 11.203 66.558 11.203 71.59V106H0.768982Z" fill="black"/>
<path d="M118.648 107.887C109.768 107.887 102.775 105.149 97.6685 99.673C92.6365 94.197 90.1205 86.427 90.1205 76.363C90.1205 67.409 92.7475 60.009 98.0015 54.163C103.33 48.317 109.99 45.394 117.982 45.394C126.64 45.394 133.337 48.206 138.073 53.83C142.809 59.38 145.177 66.965 145.177 76.585V78.583H100.666C100.74 85.169 102.479 90.349 105.883 94.123C109.287 97.823 113.579 99.673 118.759 99.673C127.787 99.673 132.93 95.714 134.188 87.796H144.622C143.956 93.494 141.403 98.267 136.963 102.115C132.597 105.963 126.492 107.887 118.648 107.887ZM100.999 71.146H133.966C133.966 65.818 132.56 61.563 129.748 58.381C126.936 55.199 123.014 53.608 117.982 53.608C113.246 53.608 109.324 55.273 106.216 58.603C103.108 61.859 101.369 66.04 100.999 71.146Z" fill="black"/>
<path d="M175.023 107.887C166.143 107.887 159.15 105.149 154.044 99.673C149.012 94.197 146.496 86.427 146.496 76.363C146.496 67.409 149.123 60.009 154.377 54.163C159.705 48.317 166.365 45.394 174.357 45.394C183.015 45.394 189.712 48.206 194.448 53.83C199.184 59.38 201.552 66.965 201.552 76.585V78.583H157.041C157.115 85.169 158.854 90.349 162.258 94.123C165.662 97.823 169.954 99.673 175.134 99.673C184.162 99.673 189.305 95.714 190.563 87.796H200.997C200.331 93.494 197.778 98.267 193.338 102.115C188.972 105.963 182.867 107.887 175.023 107.887ZM157.374 71.146H190.341C190.341 65.818 188.935 61.563 186.123 58.381C183.311 55.199 179.389 53.608 174.357 53.608C169.621 53.608 165.699 55.273 162.591 58.603C159.483 61.859 157.744 66.04 157.374 71.146Z" fill="black"/>
<path d="M226.866 106.555C221.76 106.555 217.653 105.223 214.545 102.559C211.511 99.821 209.994 95.418 209.994 89.35V55.939H199.005V47.281H209.994V27.967H220.428V47.281H232.638V55.939H220.428V88.24C220.428 91.496 221.168 93.79 222.648 95.122C224.128 96.38 226.274 97.009 229.086 97.009C230.344 97.009 231.787 96.898 233.415 96.676V106C231.195 106.37 229.012 106.555 226.866 106.555Z" fill="black"/>
<path d="M273.72 100.624C280.632 98.192 290.744 81.296 294.84 65.04C296.376 59.28 296.632 56.848 295.864 56.848C294.712 56.848 290.36 60.048 287.032 63.248C276.92 73.616 269.112 90.768 268.984 103.184C268.984 104.848 268.856 106.64 268.728 106.896C268.088 107.536 266.424 107.664 265.784 107.024C265.4 106.64 265.144 106.128 265.144 105.744C265.144 105.488 264.888 105.232 264.376 105.488C263.992 105.616 263.736 105.488 263.736 105.104C263.608 104.72 263.48 104.592 263.352 104.848C262.712 105.744 261.816 105.744 260.28 104.848C258.616 104.08 258.488 103.824 257.848 97.808C256.696 87.568 259.64 68.624 265.144 51.088C270.776 33.552 282.296 10.384 288.184 4.752C290.36 2.83199 292.152 2.448 292.664 3.98399C292.792 4.49599 293.688 5.392 294.712 6.032C295.608 6.672 296.376 7.43999 296.376 7.95199C296.376 8.464 294.456 12.944 292.024 17.68C287.416 27.024 283.576 35.728 280.248 44.304C278.072 50.192 273.336 65.168 273.592 65.552C273.72 65.552 274.872 64.016 276.152 62.096C279.608 56.976 285.752 50.832 288.824 49.168C292.92 47.248 296.504 47.76 299.064 50.448C299.576 50.96 300.216 51.472 300.6 51.472C301.752 51.472 305.592 55.44 306.104 57.232C307.128 60.048 306.488 68.112 304.952 72.72C300.6 85.52 290.744 100.368 283.832 104.464C281.912 105.616 281.272 105.744 278.84 105.488C275.896 105.232 271.416 103.056 271.416 102.032C271.416 101.648 272.44 101.136 273.72 100.624ZM262.712 77.584C262.712 78.096 262.84 78.352 262.968 78.224C263.224 77.968 263.224 77.584 263.096 77.2C262.84 76.816 262.712 76.944 262.712 77.584ZM261.56 88.976C261.688 88.464 261.688 87.568 261.56 86.928C261.432 86.416 261.432 86.8 261.304 87.824C261.304 88.848 261.432 89.36 261.56 88.976ZM262.072 84.496C262.2 84.112 262.2 83.344 262.072 82.832C261.944 82.32 261.816 82.704 261.816 83.728C261.816 84.624 261.944 85.008 262.072 84.496ZM262.328 80.272C262.328 80.912 262.456 81.168 262.584 80.912C262.712 80.528 262.712 80.016 262.584 79.632C262.456 79.376 262.328 79.632 262.328 80.272ZM263.352 85.392C264.12 77.456 267.832 61.584 271.544 50.32C275.768 37.776 283.832 19.856 289.336 11.152C290.744 8.976 291.768 7.184 291.512 7.312C290.616 7.824 285.752 16.272 282.808 22.16C273.336 40.848 266.808 60.56 263.736 79.12C262.584 86.288 262.2 89.616 262.712 89.232C262.84 89.232 263.224 87.44 263.352 85.392ZM265.528 80.912C265.656 80.528 265.656 80.016 265.528 79.632C265.272 79.376 265.272 79.632 265.272 80.272C265.272 80.912 265.272 81.168 265.528 80.912ZM265.912 77.968C266.04 77.584 266.04 77.072 265.912 76.688C265.784 76.432 265.656 76.688 265.656 77.328C265.656 77.968 265.784 78.224 265.912 77.968ZM267.448 71.184C268.088 68.496 269.24 63.888 270.136 60.688C274.616 43.92 283.064 24.08 292.024 9.104C292.664 8.336 292.92 7.56799 292.792 7.56799C292.28 7.56799 286.904 17.168 283.448 24.336C277.432 36.88 273.08 48.016 270.008 59.024C268.344 65.04 266.04 74.768 266.168 75.536C266.168 75.92 266.808 73.872 267.448 71.184ZM292.92 84.24C292.92 84.88 293.304 84.752 293.688 83.856C293.816 83.472 293.688 83.216 293.432 83.472C293.176 83.6 292.92 83.984 292.92 84.24ZM301.24 68.88C301.24 68.624 300.472 70.288 299.576 72.848C298.68 75.28 296.76 79.76 295.224 82.832C293.688 85.904 292.92 87.824 293.304 87.312C293.688 86.8 294.84 84.752 295.864 82.704C297.784 78.864 301.24 70.032 301.24 68.88ZM298.808 64.912C298.808 65.424 298.936 65.68 299.064 65.552C299.32 65.296 299.32 64.912 299.192 64.528C298.936 64.144 298.808 64.272 298.808 64.912ZM298.296 67.344C298.04 67.856 297.912 68.624 297.912 69.008C297.912 69.52 298.04 69.392 298.296 68.752C298.552 68.24 298.68 67.472 298.68 67.088C298.68 66.576 298.552 66.704 298.296 67.344ZM296.76 75.664C294.328 81.808 294.2 82.32 295.864 78.992C296.632 77.456 297.912 74.128 298.68 71.696C300.344 66.832 301.24 63.12 301.24 61.84C301.24 61.328 300.6 63.248 299.832 66.192C299.064 69.008 297.656 73.232 296.76 75.664Z" fill="black"/>
<path d="M341.22 4.36799C342.5 5.26399 342.5 5.64799 342.372 8.07999C342.116 9.616 339.172 19.472 335.716 30.224C328.932 50.96 325.348 63.504 323.172 73.744C322.02 79.248 321.892 81.168 321.764 89.104C321.764 97.296 321.892 98.32 322.916 101.008C323.428 102.544 324.58 104.336 325.22 104.976C327.78 106.896 325.86 108.176 322.276 107.024C316.644 105.104 314.084 102.544 312.164 96.144C311.14 93.072 311.012 91.792 311.012 82.448C311.012 71.952 311.268 70.16 313.572 59.536C316.132 47.76 323.556 23.696 327.78 13.968C329.7 9.488 332.516 4.36799 334.18 2.576C334.564 2.06399 335.46 1.42399 336.1 1.16799C337.124 0.783995 337.508 0.911994 338.66 2.06399C339.428 2.83199 340.58 3.85599 341.22 4.36799ZM333.412 11.536C333.028 12.176 332.772 12.944 332.772 13.2C332.772 13.456 333.028 13.072 333.412 12.432C333.796 11.792 334.18 11.024 334.18 10.768C334.18 10.512 333.796 10.768 333.412 11.536ZM332.26 14.352C332.004 14.864 331.748 15.376 331.748 15.632C331.748 15.888 332.004 15.76 332.26 15.376C332.516 14.992 332.772 14.48 332.772 14.224C332.772 13.84 332.516 13.968 332.26 14.352ZM331.236 16.784C330.98 17.296 330.852 17.808 330.852 18.064C330.852 18.32 330.98 18.192 331.236 17.808C331.492 17.424 331.748 16.912 331.748 16.656C331.748 16.272 331.492 16.4 331.236 16.784ZM330.34 19.344C330.084 19.728 329.828 20.24 329.828 20.496C329.828 20.752 330.084 20.624 330.34 20.24C330.596 19.856 330.724 19.344 330.724 19.088C330.724 18.832 330.596 18.832 330.34 19.344ZM328.676 23.696C328.42 24.464 328.42 24.72 328.804 24.208C329.06 23.824 329.316 22.928 329.572 22.16C329.7 21.392 329.7 21.264 329.444 21.776C329.188 22.16 328.804 23.056 328.676 23.696ZM327.396 27.28C326.884 28.688 326.5 30.096 326.5 30.48C326.5 30.864 326.884 30.096 327.396 28.816C327.908 27.408 328.292 26 328.292 25.616C328.292 25.232 327.908 26 327.396 27.28ZM325.86 32.016C325.604 32.4 325.476 33.04 325.476 33.424C325.476 34.192 326.244 32.656 326.372 31.76C326.372 31.504 326.116 31.504 325.86 32.016ZM314.596 87.44C314.724 86.672 314.724 85.52 314.596 84.752C314.468 83.984 314.34 84.624 314.34 86.16C314.34 87.568 314.468 88.208 314.596 87.44ZM314.98 77.2C315.108 76.688 315.108 75.92 314.98 75.536C314.852 75.024 314.852 75.408 314.852 76.432C314.852 77.328 314.852 77.712 314.98 77.2ZM315.492 72.336C315.364 71.952 315.236 72.336 315.236 72.976C315.236 73.616 315.364 73.872 315.492 73.616C315.62 73.232 315.62 72.72 315.492 72.336ZM317.796 78.992C317.924 76.048 317.924 75.28 317.54 76.56C317.156 78.48 317.028 83.984 317.284 83.6C317.412 83.472 317.54 81.424 317.796 78.992ZM329.316 33.424C330.852 28.56 332.132 24.336 332.004 24.208C331.876 24.08 325.86 42.384 323.3 51.088C321.38 57.36 318.692 68.88 318.308 71.952C318.18 73.488 318.692 71.696 319.46 68.112C320.228 64.4 322.148 57.232 323.684 51.984C325.22 46.736 327.652 38.416 329.316 33.424ZM334.436 18.576C335.076 16.656 335.588 15.12 335.46 14.992C335.332 14.864 333.796 18.704 333.028 21.264C332.26 23.696 333.156 21.904 334.436 18.576ZM337.124 11.536C337.38 11.024 337.636 10.512 337.636 10.256C337.636 9.99999 337.38 10.128 337.124 10.512C336.868 10.896 336.612 11.408 336.612 11.664C336.612 12.048 336.868 11.92 337.124 11.536ZM336.484 9.35999C337.636 6.672 338.532 4.36799 338.404 4.36799C338.148 3.98399 333.796 13.584 331.62 19.216C329.828 23.952 326.628 33.808 323.684 43.408C321.124 51.6 318.692 61.2 317.412 67.344C316.26 73.488 314.98 86.288 315.364 88.336C315.492 88.848 315.62 90.384 315.62 91.664C315.62 92.944 315.748 93.968 315.876 93.968C316.004 93.968 316.132 90.64 316.132 86.672C316.004 73.36 318.18 62.864 326.756 35.856C329.7 26.256 333.412 16.4 336.484 9.35999Z" fill="black"/>
<path d="M355.189 49.04C359.285 47.76 361.205 48.016 364.277 50.448C365.557 51.6 366.709 52.368 366.837 52.368C366.965 52.368 367.605 53.136 368.245 54.032C371.445 58.64 366.837 71.44 359.925 77.584C353.909 82.832 348.533 83.728 342.517 80.4C341.749 79.888 339.957 87.184 339.701 91.92C339.445 96.528 339.573 97.424 340.469 99.472L341.493 101.776L344.437 101.648C348.917 101.264 354.549 98.32 359.029 93.84C360.949 91.792 363.509 88.72 364.789 86.928C366.197 84.752 367.221 83.728 367.733 83.984C371.573 85.392 359.669 102.8 352.501 106.256C351.349 106.896 349.301 107.28 347.125 107.408C343.925 107.536 343.541 107.536 339.701 105.36C335.093 102.672 331.893 99.728 330.357 96.656C326.133 87.824 329.589 72.72 338.677 61.456C343.925 54.928 349.173 50.832 355.189 49.04ZM333.045 83.984C333.173 83.856 333.301 83.472 333.045 83.088C332.917 82.704 332.789 82.832 332.789 83.344C332.789 83.856 332.917 84.112 333.045 83.984ZM333.301 81.168C333.301 81.68 333.429 81.552 333.813 80.912C333.941 80.4 334.197 79.632 334.197 79.248C334.197 78.736 334.069 78.864 333.813 79.504C333.557 80.016 333.301 80.784 333.301 81.168ZM333.557 86.8C333.301 89.104 333.429 88.976 334.069 86.032C334.453 84.368 335.221 81.296 335.861 79.248C337.141 75.28 337.141 74.128 335.989 77.072C334.965 79.504 333.941 83.856 333.557 86.8ZM335.989 84.496C336.117 84.368 336.117 83.856 335.989 83.6C335.861 83.216 335.733 83.216 335.733 83.856C335.733 84.368 335.861 84.624 335.989 84.496ZM338.037 77.328C338.165 76.176 336.885 79.376 336.501 81.296C336.245 82.576 336.373 82.32 337.141 80.528C337.653 79.12 338.037 77.712 338.037 77.328ZM344.821 65.04C344.437 65.424 344.053 65.808 344.053 65.936C344.053 66.32 344.437 66.064 345.077 65.168C345.589 64.4 345.589 64.4 344.821 65.04ZM339.573 70.416C339.829 69.904 339.957 69.52 339.829 69.52C339.701 69.52 339.445 69.904 339.061 70.416C338.805 71.056 338.677 71.44 338.805 71.44C338.933 71.44 339.317 71.056 339.573 70.416ZM342.261 69.392C343.285 67.728 343.797 66.704 343.413 66.96C342.645 67.6 339.829 72.464 340.213 72.464C340.341 72.464 341.237 71.056 342.261 69.392ZM364.021 65.424C364.021 64.784 363.765 65.04 362.997 66.576C362.485 67.728 362.485 67.728 363.253 66.832C363.637 66.32 364.021 65.68 364.021 65.424ZM362.869 55.952C361.973 55.056 354.933 60.816 350.965 65.68C348.149 69.392 344.053 75.664 344.053 76.432C344.053 77.328 347.893 76.688 350.581 75.408C354.293 73.744 358.005 69.776 360.309 65.168C361.845 61.968 363.381 56.592 362.869 55.952Z" fill="black"/>
<path d="M428.9 48.144C429.156 48.144 429.796 48.912 430.436 49.808C432.484 53.264 431.46 59.792 426.468 73.232C422.756 83.344 421.604 86.928 420.324 93.712C418.788 100.88 418.788 107.152 420.324 109.968C421.22 112.016 421.22 112.016 420.452 112.016C420.068 112.016 418.788 111.12 417.508 110.224C414.692 107.792 413.54 106.384 412.26 103.184C411.236 100.752 411.108 99.856 411.108 92.688C411.108 85.648 411.364 84.368 412.644 79.248C413.412 76.176 415.588 69.776 417.38 64.912C419.172 60.048 420.708 55.824 420.836 55.44C421.22 54.288 418.148 56.848 414.82 60.688C405.988 70.288 401.124 77.84 393.444 93.2C390.5 99.088 387.556 104.336 387.172 104.72C385.508 106.128 383.332 106.384 382.308 105.232C381.796 104.592 381.156 104.208 380.9 104.208C380.516 104.208 379.748 103.696 379.108 103.056C377.828 101.648 374.756 89.744 374.756 86.032C374.756 82.832 376.036 76.432 377.7 71.312C380.132 64.144 386.148 52.24 388.58 49.808C390.5 47.888 392.932 47.632 393.956 49.168C394.468 49.808 395.364 50.704 396.132 51.088C397.796 51.856 399.588 53.52 399.588 54.16C399.588 54.416 397.924 58.384 395.748 62.736C392.164 70.288 390.116 74.896 390.628 74.896C390.628 74.896 391.524 73.744 392.292 72.336C398.948 61.712 411.62 47.376 416.484 45.072C421.348 42.64 422.884 42.768 426.34 46.096C427.492 47.248 428.644 48.144 428.9 48.144ZM393.06 80.784C392.804 80.784 389.604 87.056 388.836 88.976C387.94 91.28 388.836 89.744 391.012 85.264C392.292 82.832 393.188 80.784 393.06 80.784ZM383.972 67.344C383.716 67.472 383.46 67.856 383.46 68.112C383.46 68.88 383.844 68.624 384.228 67.856C384.356 67.344 384.228 67.216 383.972 67.344ZM383.332 69.264C383.204 69.008 381.028 74.512 381.156 75.152C381.156 75.408 381.668 74.256 382.308 72.592C383.076 70.8 383.46 69.392 383.332 69.264ZM380.644 76.688C380.388 77.2 380.132 77.968 380.132 78.352C380.132 78.736 380.388 78.736 380.644 78.096C380.772 77.584 381.028 76.816 381.028 76.432C381.028 75.92 380.9 76.048 380.644 76.688ZM379.492 83.088C379.62 82.96 379.62 82.448 379.492 82.192C379.364 81.808 379.236 81.808 379.236 82.448C379.108 82.96 379.236 83.216 379.492 83.088ZM379.876 80.656C380.132 80.528 380.132 80.016 380.004 79.76C379.748 79.376 379.62 79.376 379.62 80.016C379.62 80.528 379.748 80.784 379.876 80.656ZM383.972 72.72C384.868 70.288 386.916 65.424 388.708 61.712C392.036 54.672 391.78 54.288 388.196 61.2C384.1 69.136 380.004 81.424 380.132 85.392C380.132 86.16 380.644 84.752 381.284 81.936C381.924 79.248 383.204 75.152 383.972 72.72ZM384.996 73.744C384.996 74.384 385.38 73.616 387.556 68.368C388.836 65.424 391.012 60.816 392.548 58.128C395.62 52.624 395.876 51.216 392.932 56.208C389.988 61.328 384.996 72.336 384.996 73.744ZM387.94 91.664C388.324 91.28 388.452 90.896 388.324 90.768C388.196 90.64 387.94 90.896 387.684 91.408C387.428 92.048 387.556 92.176 387.94 91.664ZM386.66 98.32C386.916 97.424 386.788 97.296 386.532 97.808C386.276 98.192 385.892 99.088 385.764 99.856C385.508 100.624 385.508 100.752 385.892 100.24C386.148 99.856 386.532 98.96 386.66 98.32ZM386.404 95.376C386.66 94.992 386.916 94.48 386.916 94.224C386.916 93.968 386.66 93.968 386.404 94.48C386.148 94.864 386.02 95.376 386.02 95.632C386.02 95.888 386.148 95.76 386.404 95.376ZM397.924 75.92C400.612 71.696 400.74 71.568 400.484 71.568C399.332 71.568 386.788 94.864 386.916 96.656C387.044 96.912 387.428 96.4 387.812 95.376C388.196 94.48 390.244 90.384 392.164 86.416C394.212 82.448 396.772 77.712 397.924 75.92ZM402.66 68.752C403.172 67.984 403.172 67.856 402.404 68.496C402.02 68.88 401.636 69.264 401.636 69.392C401.636 69.776 402.02 69.52 402.66 68.752ZM404.068 66.704C404.708 65.936 404.708 65.936 403.94 66.576C403.428 66.96 403.044 67.344 403.044 67.472C403.044 67.856 403.428 67.6 404.068 66.704ZM418.66 72.464C418.404 72.848 418.148 73.488 418.148 73.744C418.148 74 418.404 73.872 418.66 73.488C418.916 73.104 419.172 72.464 419.172 72.208C419.172 71.952 418.916 72.08 418.66 72.464ZM416.484 85.008C416.612 84.88 416.74 84.496 416.484 84.112C416.356 83.728 416.228 83.856 416.228 84.368C416.228 84.88 416.356 85.136 416.484 85.008ZM417.124 82.448C417.38 81.936 417.636 81.168 417.636 80.784C417.636 80.272 417.508 80.4 417.124 81.04C416.996 81.552 416.74 82.32 416.74 82.704C416.74 83.216 416.868 83.088 417.124 82.448ZM425.188 59.024C425.828 56.592 425.188 57.872 423.652 62.224C422.756 64.528 421.22 68.752 420.196 71.696C419.044 74.64 418.02 77.712 417.892 78.608C417.636 80.144 424.676 61.456 425.188 59.024ZM425.828 57.232C425.956 57.104 425.956 56.592 425.828 56.336C425.7 55.952 425.572 55.952 425.572 56.592C425.444 57.104 425.572 57.36 425.828 57.232Z" fill="black"/>
<path d="M475.279 105.744C469.519 102.928 465.935 97.936 464.911 91.28C464.527 89.616 464.271 88.208 464.271 88.08C464.143 88.08 462.863 90 461.199 92.56C456.719 99.856 451.599 104.464 447.247 105.36C445.711 105.616 444.815 105.36 441.743 103.824C433.679 99.984 431.119 95.76 431.247 86.032C431.247 77.968 433.167 70.416 437.647 61.328C443.407 49.936 449.935 44.816 457.871 43.664C465.295 42.64 469.519 48.016 469.519 47.888C469.647 47.504 470.031 46.352 470.287 45.328C471.439 41.36 476.047 30.096 478.095 26C480.271 21.52 483.983 15.632 485.519 13.968C486.799 12.56 488.591 12.56 488.975 13.712C489.231 14.224 489.871 14.864 490.511 15.248C491.151 15.504 491.791 16.272 492.047 17.04C492.303 18.32 492.175 18.704 486.415 34.576C481.807 46.736 478.607 59.152 476.815 70.544C475.791 77.456 475.663 91.92 476.687 96.528C477.711 101.008 479.247 103.952 480.783 104.592C481.423 104.848 481.935 105.104 481.935 105.36C481.935 105.744 479.887 107.408 479.247 107.408C478.991 107.408 477.199 106.64 475.279 105.744ZM435.471 81.552C435.599 81.296 435.599 80.912 435.471 80.528C435.343 80.144 435.215 80.272 435.215 80.912C435.215 81.424 435.215 81.68 435.471 81.552ZM438.031 76.048C438.671 74 439.823 70.544 440.719 68.368C442.639 64.016 442.639 63.12 440.719 67.344C437.775 73.872 436.367 79.248 435.983 85.264L435.599 89.232L436.367 84.496C436.751 82.064 437.519 78.224 438.031 76.048ZM440.079 74.896C440.847 72.592 442.639 68.24 444.175 65.04C445.583 61.968 446.479 59.92 446.095 60.432C444.047 62.864 438.415 76.432 438.543 78.352C438.671 78.736 439.311 77.072 440.079 74.896ZM465.679 63.888C466.063 62.096 466.191 60.304 466.063 60.176C465.935 59.92 465.551 58.256 465.295 56.592C464.527 51.216 464.399 51.088 461.071 52.88C455.951 55.44 450.319 62.48 446.351 71.312C442.127 80.912 440.591 92.048 442.767 98.704C443.151 99.984 443.663 99.984 446.223 98.704C450.575 96.528 457.487 87.568 462.607 77.456C463.759 75.024 464.399 73.104 464.655 70.672C464.783 68.752 465.295 65.68 465.679 63.888ZM469.647 81.04C469.775 80.272 469.775 78.992 469.647 78.096C469.519 77.2 469.391 77.84 469.391 79.376C469.391 81.04 469.519 81.808 469.647 81.04ZM481.551 35.344C481.807 34.832 481.935 34.32 481.935 34.064C481.935 33.808 481.807 33.936 481.551 34.32C481.167 34.704 481.039 35.216 481.039 35.472C481.039 35.856 481.167 35.728 481.551 35.344ZM484.879 27.024C485.135 26.64 485.391 26 485.391 25.744C485.391 25.488 485.135 25.616 484.879 26C484.623 26.384 484.367 27.024 484.367 27.28C484.367 27.536 484.623 27.408 484.879 27.024ZM488.719 18.704C489.359 17.552 489.359 17.552 488.591 18.448C488.207 18.96 487.823 19.6 487.823 19.856C487.823 20.496 488.079 20.24 488.719 18.704ZM476.559 39.184C476.303 39.568 476.175 40.08 476.175 40.464C476.175 40.72 476.303 40.592 476.559 40.208C476.815 39.824 477.071 39.184 477.071 38.928C477.071 38.672 476.815 38.8 476.559 39.184ZM473.871 46.992C473.615 47.888 473.231 49.04 473.231 49.424C473.231 49.808 473.615 49.424 473.871 48.4C474.255 47.504 474.639 46.48 474.639 45.968C474.639 45.584 474.255 46.096 473.871 46.992ZM472.591 52.24C472.463 51.856 472.335 52.24 472.335 52.88C472.335 53.52 472.463 53.776 472.591 53.392C472.719 53.136 472.719 52.624 472.591 52.24ZM473.999 53.776C476.047 45.072 481.167 31.248 485.647 22.416C487.055 19.472 488.207 17.04 488.079 16.912C487.695 16.528 482.447 27.408 480.015 33.552C477.455 39.952 474.767 48.272 473.487 53.392C472.975 55.056 472.463 56.976 472.335 57.488C472.207 58.128 472.207 58.256 472.591 58C472.847 57.744 473.487 55.824 473.999 53.776Z" fill="black"/>
</svg>
