<svg width="18" height="15" viewBox="0 0 18 15" fill="none" xmlns="http://www.w3.org/2000/svg">
<path d="M9.00124 11.6364H13.3692C13.6035 11.6364 13.8324 11.5668 14.027 11.4364L16.7323 9.62381C17.0598 9.4044 17.2563 9.03734 17.2563 8.64316C17.2563 7.72987 17.2563 6.02679 17.2563 4.92699C17.2563 3.36364 14.3194 1 9.00124 1C5.15095 1 3.09081 1.59199 1.93702 2.10918C1.15867 2.45808 0.728516 3.30035 0.728516 4.15332V10.4545C0.728516 11.1072 1.25763 11.6364 1.91033 11.6364H4.27397" stroke="#575249" stroke-linecap="round"/>
<path d="M9.00169 11.6364C9.00169 12.9418 7.94345 14 6.63805 14C5.33265 14 4.27441 12.9418 4.27441 11.6364C4.27441 10.331 5.33265 9.27273 6.63805 9.27273C7.94345 9.27273 9.00169 10.331 9.00169 11.6364Z" stroke="#575249"/>
<path d="M4.27441 5.13636H7.81987" stroke="#575249" stroke-linecap="round"/>
</svg>
