<svg width="10" height="19" viewBox="0 0 10 19" fill="none" xmlns="http://www.w3.org/2000/svg">
<path d="M0.5 7C0.5 5.61929 1.61929 4.5 3 4.5L7 4.5C8.38071 4.5 9.5 5.61929 9.5 7L9.5 16C9.5 17.3807 8.38071 18.5 7 18.5H3C1.61929 18.5 0.5 17.3807 0.5 16L0.5 7Z" stroke="#4C4C4C"/>
<path d="M2 13C2 12.4477 2.44772 12 3 12H7C7.55228 12 8 12.4477 8 13V16C8 16.5523 7.55228 17 7 17H3C2.44772 17 2 16.5523 2 16L2 13Z" fill="#4C4C4C"/>
<path d="M5 0.875C3.96447 0.875 3.125 1.71447 3.125 2.75L6.875 2.75C6.875 1.71447 6.03553 0.875 5 0.875Z" fill="#4C4C4C"/>
</svg>
