<svg width="18" height="18" viewBox="0 0 18 18" fill="none" xmlns="http://www.w3.org/2000/svg">
<path d="M0.400977 5.68375V5.68341V2.36208C0.400977 1.2811 1.28208 0.4 2.36306 0.4H5.68439C6.76537 0.4 7.64647 1.2811 7.64647 2.36208V5.68763C7.64647 6.76861 6.76537 7.64971 5.68439 7.64971H2.36306C1.2816 7.64971 0.400064 6.76619 0.400977 5.68375Z" stroke="#575349" stroke-width="0.8"/>
<path d="M17.2959 5.68328V5.68341C17.2959 6.76439 16.4148 7.64549 15.3338 7.64549H12.0125C10.9315 7.64549 10.0504 6.76439 10.0504 5.68341V2.36208C10.0504 1.2811 10.9315 0.4 12.0125 0.4H15.3338C16.416 0.4 17.2969 1.28115 17.297 2.36195C17.297 2.36199 17.297 2.36204 17.297 2.36208L17.2959 5.68328Z" stroke="#575349" stroke-width="0.8"/>
<path d="M7.64549 15.6392V15.6393C7.64549 16.7203 6.76439 17.6014 5.68341 17.6014H2.36208C1.28115 17.6014 0.400072 16.7204 0.4 15.6395C0.4 15.6394 0.4 15.6394 0.4 15.6393L0.401099 12.3173V12.3172C0.401099 11.2362 1.2822 10.3551 2.36318 10.3551H5.68451C6.76545 10.3551 7.64652 11.2361 7.6466 12.317C7.6466 12.3171 7.6466 12.3171 7.6466 12.3172L7.64549 15.6392Z" stroke="#575349" stroke-width="0.8"/>
<path d="M17.2959 15.6377V15.6378C17.2959 16.7188 16.4148 17.5999 15.3338 17.5999H12.0125C10.9315 17.5999 10.0504 16.7188 10.0504 15.6378V12.3123C10.0504 11.2313 10.9315 10.3502 12.0125 10.3502H15.3338C16.4152 10.3502 17.2969 11.234 17.297 12.3155C17.297 12.3156 17.297 12.3156 17.297 12.3157L17.2959 15.6377Z" stroke="#575349" stroke-width="0.8"/>
</svg>
