<svg width="22" height="22" viewBox="0 0 22 22" fill="none" xmlns="http://www.w3.org/2000/svg">
<path fill-rule="evenodd" clip-rule="evenodd" d="M17.2335 2.53516H1.16895C3.50089 7.84326 8.99683 9.70276 11.3858 9.70276H17.2335V9.70272L17.2425 9.70273C19.2218 9.70273 20.8263 8.09821 20.8263 6.11894C20.8263 4.13967 19.2218 2.53516 17.2425 2.53516H17.2335ZM16.9916 12.1399H5.41824C6.8808 15.8083 10.0405 19.2412 14.5719 19.4651H16.9916V19.4611C17.0501 19.4639 17.1091 19.4653 17.1683 19.4653C19.1911 19.4653 20.8309 17.8255 20.8309 15.8027C20.8309 13.7799 19.1911 12.1401 17.1683 12.1401C17.1091 12.1401 17.0501 12.1415 16.9916 12.1443V12.1399Z" fill="#F8F8F8" style="fill:#F8F8F8;fill:color(display-p3 0.9725 0.9725 0.9725);fill-opacity:1;"/>
</svg>
