<svg width="22" height="22" viewBox="0 0 22 22" fill="none" xmlns="http://www.w3.org/2000/svg">
<path d="M21.6629 11.5368C21.654 12.5752 20.2306 13.3451 18.5208 13.3451H14.9132C14.4119 13.3451 14.224 13.4256 13.9285 13.7568L7.91292 20.3275C7.72493 20.5334 7.49219 20.6497 7.22363 20.6497H6.18522C5.95247 20.6497 5.8182 20.4349 5.93457 20.1932L9.0319 13.3451L4.48437 12.8258L2.86409 15.7979C2.74772 16.0127 2.55078 16.1112 2.25537 16.1112H1.87044C1.63769 16.1112 1.48551 15.9679 1.48551 15.7352V7.33838C1.48551 7.10563 1.63769 6.95345 1.87044 6.95345H2.25537C2.55078 6.95345 2.74772 7.05192 2.86409 7.27572L4.48437 10.2477L9.0319 9.72852L5.93457 2.88037C5.8182 2.62972 5.95247 2.42383 6.18522 2.42383H7.22363C7.49219 2.42383 7.72493 2.53125 7.91292 2.74609L13.9285 9.30778C14.224 9.64795 14.4119 9.72852 14.9132 9.72852H18.5208C20.2306 9.72852 21.654 10.4894 21.6629 11.5368Z" fill="#F8F8F8"/>
</svg>
