<svg width="22" height="22" viewBox="0 0 22 22" fill="none" xmlns="http://www.w3.org/2000/svg">
<path fill-rule="evenodd" clip-rule="evenodd" d="M12.0728 20.1607C12.0073 20.1607 11.9284 20.1607 11.8408 20.1599H3.82129V19.9118H5.29469H5.33678C5.88405 19.9118 6.17873 19.8291 6.38921 19.705C6.5997 19.5809 6.72599 19.3327 6.76809 19.0432C6.81019 18.7537 6.85228 18.1333 6.85228 17.182V3.40882H3.82129V3.16066H4.07387C6.18361 3.16066 7.51895 2.55197 8.4033 2.14886C8.6483 2.03718 8.85868 1.94128 9.04133 1.87847V17.2233C9.04133 18.1746 9.08343 18.795 9.12553 19.0846C9.16762 19.3741 9.29392 19.5809 9.5044 19.7463C9.64263 19.8142 9.92269 19.8821 10.3213 19.9043C10.1131 19.7339 10.0022 19.468 9.92588 19.1681C9.88379 18.8785 9.84169 18.2581 9.84169 17.3068V1.83789H10.0103H10.2627H12.0731C17.8825 1.83789 18.1771 5.60172 18.1771 6.38758C18.1771 7.91793 17.4615 9.20011 16.1565 10.0273C14.5568 11.02 12.4519 11.02 11.4416 11.02H10.2627V17.3068C10.2627 18.2168 10.3048 18.8372 10.3469 19.1267C10.389 19.3749 10.4731 19.5403 10.6415 19.623C10.7633 19.7028 11.4329 19.8979 12.009 19.9118H12.1144V20.1599H12.0728V20.1607ZM10.2627 10.7718H10.5576C10.5894 10.7718 10.6215 10.7718 10.6539 10.7719C12.5474 10.7732 15.3145 10.7753 15.3145 6.13941C15.3145 2.08216 12.9246 2.08443 11.2838 2.08599C11.2519 2.08603 11.2203 2.08606 11.189 2.08606H10.2627V10.7718Z" fill="#F8F8F8" style="fill:#F8F8F8;fill:color(display-p3 0.9725 0.9725 0.9725);fill-opacity:1;"/>
</svg>
