<svg width="22" height="22" viewBox="0 0 22 22" fill="none" xmlns="http://www.w3.org/2000/svg">
<path d="M5.31287 16.2143L1.53125 12.1027V21.8481H5.31287V16.2143ZM11.9456 11.6835V11.6211C15.0761 11.5587 19.1045 9.94731 19.1045 5.88623C19.1045 1.79542 15.3229 0.151367 10.6731 0.151367H1.53125V1.1711L9.62071 1.17704C12.9683 1.17704 15.1385 1.88164 15.1385 5.63353C15.1385 9.56974 12.784 11.083 9.52855 11.083H5.31287V5.28569L1.53125 1.1711V12.1027H8.87747C11.8237 12.1027 12.9683 12.9233 13.8691 15.6495L14.9542 18.8722C15.2961 19.8949 15.635 20.9176 16.2861 21.8481H20.4691C19.5713 20.8879 19.1372 19.8324 18.7031 18.5333L17.618 15.373C16.7796 12.9857 14.9512 11.8679 11.9456 11.6835Z" fill="#F8F8F8"/>
</svg>
