<svg width="22" height="22" viewBox="0 0 22 22" fill="none" xmlns="http://www.w3.org/2000/svg">
<path d="M7.66858 18.787C12.8347 20.153 18.1451 17.128 19.5292 12.0304C20.9139 6.93291 17.8488 1.69367 12.6813 0.327733C7.51523 -1.03756 2.20547 1.98744 0.82076 7.08497C-0.563945 12.1819 2.50311 17.4211 7.66858 18.787ZM16.0558 4.7575C16.8038 4.75103 16.7811 4.30197 17.0626 4.04185C17.7479 4.87671 18.2737 5.83063 18.6136 6.85591C18.2383 6.90767 17.8565 6.91673 17.5026 6.66373C16.3327 5.99209 15.7685 6.50132 15.234 6.10726C14.6995 5.71256 14.8302 4.76785 16.0558 4.7575ZM15.2075 8.47162C16.4382 8.15391 17.9717 8.67026 19.0497 9.49979C19.0557 10.2846 18.9545 11.0666 18.7488 11.824C18.2246 13.7497 17.055 15.437 15.4359 16.6039C15.2055 15.4773 15.4178 14.6154 15.718 13.8319C16.158 12.6833 15.0852 12.662 13.3944 11.1809C12.0951 10.044 13.9658 8.79256 15.2075 8.47162ZM2.331 5.4615C3.321 3.61738 4.93347 2.21456 6.82999 1.45038C7.26935 1.6335 7.84782 1.73962 8.53176 1.69691C10.7758 1.5565 11.8596 1.81726 11.9042 3.06867C11.9489 4.32138 8.89152 4.24632 7.63882 5.45956C6.38676 6.67214 4.41129 5.16191 4.00494 6.75109C3.59923 8.33897 5.55335 8.88767 6.72905 8.52532C7.90476 8.16362 8.79317 9.37944 9.27847 10.5196C9.76376 11.6603 10.922 11.4869 10.8631 12.4588C10.6599 14.1023 9.47905 13.2773 8.21535 14.816C7.30364 15.9257 6.77241 16.9319 6.65982 17.5984C6.1591 17.3853 5.67911 17.1264 5.22594 16.8251C5.24535 16.5081 5.42588 16.1632 5.67111 15.6792C7.12958 12.3708 3.83929 12.3786 4.96194 10.451C5.52164 9.46356 3.22005 8.79579 3.17735 7.06362C3.15988 6.40556 2.75288 5.91314 2.33164 5.46085L2.331 5.4615Z" fill="#F8F8F8"/>
<path d="M21.5104 9.55712C21.5104 6.56965 20.3309 3.76141 18.1904 1.64941L17.6702 2.16124C19.6722 4.13671 20.7754 6.76312 20.7754 9.55712C20.7754 12.3511 19.6728 14.9775 17.6702 16.953C13.5374 21.0308 6.81251 21.0308 2.67974 16.953L2.16016 17.4655C4.02569 19.3045 6.47009 20.4415 9.07851 20.6833C9.06298 21.0534 8.98598 21.3109 8.84686 21.4526C8.68963 21.6125 8.42369 21.6921 8.0458 21.6921V21.9994H12.2918V21.6921C11.978 21.6921 11.7541 21.6125 11.6189 21.4526C11.4966 21.3084 11.4312 21.045 11.4189 20.6658C13.8939 20.3986 16.2971 19.3335 18.1904 17.4648C20.3309 15.3528 21.5104 12.5446 21.5104 9.55712Z" fill="#F8F8F8"/>
</svg>
